<?xml version="1.0" encoding="UTF-8"?>
<svg version="1.1" xmlns="http://www.w3.org/2000/svg" width="42" height="46">
<path d="M0 0 C-0.3125 1.875 -0.3125 1.875 -1 4 C-1.99 4.66 -2.98 5.32 -4 6 C-4.39806873 7.89887165 -4.39806873 7.89887165 -4.2578125 10.0625 C-4.24363281 10.85914063 -4.22945312 11.65578125 -4.21484375 12.4765625 C-4.18519531 13.30929688 -4.15554687 14.14203125 -4.125 15 C-4.08169139 16.64572707 -4.04243568 18.29156729 -4.0078125 19.9375 C-3.98348145 20.66839844 -3.95915039 21.39929688 -3.93408203 22.15234375 C-4 24 -4 24 -5 26 C-4.34 26.33 -3.68 26.66 -3 27 C-4.5625 29.0625 -4.5625 29.0625 -7 31 C-10.75 30.75 -10.75 30.75 -14 30 C-14.33 29.01 -14.66 28.02 -15 27 C-21.57059146 28.00475845 -26.34379802 29.53701919 -32 33 C-32.99 33 -33.98 33 -35 33 C-35.20086443 29.28400809 -35.1519437 28.22791555 -33 25 C-33.66 25 -34.32 25 -35 25 C-35.55133742 18.76749006 -34.11943736 15.6664498 -30.6875 10.75 C-30.28337891 10.13898437 -29.87925781 9.52796875 -29.46289062 8.8984375 C-25.19276394 2.53837889 -25.19276394 2.53837889 -23 1 C-20.87109375 1.03125 -20.87109375 1.03125 -18.4375 1.5 C-13.4010905 2.20893741 -9.85385583 1.35328179 -5.12890625 -0.40625 C-3 -1 -3 -1 0 0 Z " fill="#0EEAEB" transform="translate(38,10)"/>
<path d="M0 0 C-0.33 1.32 -0.66 2.64 -1 4 C-1.66 4 -2.32 4 -3 4 C-3 3.34 -3 2.68 -3 2 C-3.66 2 -4.32 2 -5 2 C-5.23074219 2.57363281 -5.46148437 3.14726562 -5.69921875 3.73828125 C-10.38708099 11.88924893 -22.98395216 19.18353944 -31 24 C-31.99 24 -32.98 24 -34 24 C-33.13072907 15.52460842 -29.03238814 7.03238814 -23 1 C-20.96875 1.12890625 -20.96875 1.12890625 -18.5 1.5625 C-13.45918958 2.21363516 -9.85171118 1.35248314 -5.12890625 -0.40625 C-3 -1 -3 -1 0 0 Z " fill="#DFC2C0" transform="translate(38,10)"/>
<path d="M0 0 C0 0.66 0 1.32 0 2 C0.66 2.33 1.32 2.66 2 3 C1.01 3.33 0.02 3.66 -1 4 C-1 4.99 -1 5.98 -1 7 C-2.2684375 7.12375 -2.2684375 7.12375 -3.5625 7.25 C-6.57359253 7.90696564 -8.13272687 8.52420044 -10.6875 10.0625 C-14 12 -14 12 -17 12 C-17.3203125 9.7734375 -17.3203125 9.7734375 -17 7 C-14.8046875 4.7265625 -14.8046875 4.7265625 -11.875 2.625 C-10.92367188 1.91601562 -9.97234375 1.20703125 -8.9921875 0.4765625 C-5.44318041 -1.2747752 -3.75156992 -1.03529971 0 0 Z " fill="#0AEAF7" transform="translate(20,31)"/>
<path d="M0 0 C0.66 0 1.32 0 2 0 C0.37284235 6.7410817 0.37284235 6.7410817 -2.25 8.5625 C-5 10 -5 10 -7.375 10.8125 C-9.85451918 11.93418725 -11.24258965 12.96923275 -13.25 14.75 C-15.95887523 17.15064435 -18.7271133 19.35210444 -21.6875 21.4375 C-22.41324219 21.95183594 -23.13898437 22.46617188 -23.88671875 22.99609375 C-26 24 -26 24 -28.26953125 23.66015625 C-28.84058594 23.44230469 -29.41164063 23.22445312 -30 23 C-30.45732667 17.28341664 -29.52273754 14.51350747 -26 10 C-26 13.01490557 -26.51952735 14.86864114 -27.5 17.6875 C-27.7784375 18.49574219 -28.056875 19.30398437 -28.34375 20.13671875 C-28.66859375 21.05904297 -28.66859375 21.05904297 -29 22 C-22.09622516 18.93165563 -16.78916673 14.80839336 -11 10 C-8.31496561 7.88316791 -5.62545798 5.77219954 -2.93359375 3.6640625 C-0.90767023 2.13718995 -0.90767023 2.13718995 0 0 Z " fill="#467FAA" transform="translate(33,12)"/>
<path d="M0 0 C-0.33 1.32 -0.66 2.64 -1 4 C-1.66 4 -2.32 4 -3 4 C-3 3.34 -3 2.68 -3 2 C-3.66 2 -4.32 2 -5 2 C-5.33 2.66 -5.66 3.32 -6 4 C-6 3.34 -6 2.68 -6 2 C-9.11785113 2.64644661 -9.11785113 2.64644661 -10 5 C-18.57142857 5.28571429 -18.57142857 5.28571429 -22 3 C-24.09012603 4.80510884 -25.00096499 6.0025331 -26 8.625 C-26.33 9.40875 -26.66 10.1925 -27 11 C-27.99 11.33 -28.98 11.66 -30 12 C-28.52354428 7.4364096 -26.62801218 4.17451066 -23 1 C-20.47065431 0.94159593 -18.19346771 1.33334847 -15.703125 1.76953125 C-11.80042165 2.10227619 -8.7533534 0.94346387 -5.12890625 -0.40625 C-3 -1 -3 -1 0 0 Z " fill="#C8C3D7" transform="translate(38,10)"/>
<path d="M0 0 C2 2 2 2 2.3125 4.375 C1.93683957 7.5305476 1.32411336 8.83617032 -1 11 C-3.6875 11.25 -3.6875 11.25 -6 11 C-6.66 9.68 -7.32 8.36 -8 7 C-7.01 6.67 -6.02 6.34 -5 6 C-4.67 5.175 -4.34 4.35 -4 3.5 C-3.67 2.675 -3.34 1.85 -3 1 C-2.01 0.67 -1.02 0.34 0 0 Z " fill="#05EDEA" transform="translate(32,27)"/>
<path d="M0 0 C0.495 0.309375 0.99 0.61875 1.5 0.9375 C4.97986781 2.41644382 8.24028509 2.62402851 12 3 C8.11086145 5.01659036 4.15487415 6.61504195 0 8 C0 8.66 0 9.32 0 10 C-1.32 9.67 -2.64 9.34 -4 9 C-4.25 6.75 -4.25 6.75 -4 4 C-2 1.6875 -2 1.6875 0 0 Z " fill="#ECC3B1" transform="translate(16,12)"/>
<path d="M0 0 C-0.33 1.32 -0.66 2.64 -1 4 C-1.99 4 -2.98 4 -4 4 C-4.33 5.65 -4.66 7.3 -5 9 C-6.65 9.33 -8.3 9.66 -10 10 C-9.02967359 2.884273 -9.02967359 2.884273 -7 0 C-4.04680182 -1.23843794 -3.12561472 -1.04187157 0 0 Z " fill="#F7C3B6" transform="translate(14,24)"/>
<path d="M0 0 C0.99 0.33 1.98 0.66 3 1 C1 4 1 4 -2.125 4.6875 C-3.07375 4.790625 -4.0225 4.89375 -5 5 C-5.33 6.32 -5.66 7.64 -6 9 C-5.01 9.33 -4.02 9.66 -3 10 C-7.625 13 -7.625 13 -11 13 C-11.33203125 10.7734375 -11.33203125 10.7734375 -11 8 C-8.69921875 5.7265625 -8.69921875 5.7265625 -5.6875 3.625 C-4.70136719 2.91601562 -3.71523437 2.20703125 -2.69921875 1.4765625 C-1.36310547 0.74566406 -1.36310547 0.74566406 0 0 Z " fill="#18C6E8" transform="translate(14,30)"/>
<path d="M0 0 C1.98 0 3.96 0 6 0 C6.33 0.66 6.66 1.32 7 2 C7.928125 2 8.85625 2 9.8125 2 C11.875 2 13.9375 2 16 2 C14.4375 4.0625 14.4375 4.0625 12 6 C8.25 5.75 8.25 5.75 5 5 C4.67 4.01 4.34 3.02 4 2 C2.68 2 1.36 2 0 2 C0 1.34 0 0.68 0 0 Z " fill="#1EA7DF" transform="translate(19,35)"/>
<path d="M0 0 C0.99 0.33 1.98 0.66 3 1 C2.67 1.99 2.34 2.98 2 4 C2.99 4.33 3.98 4.66 5 5 C3 7 3 7 -0.375 7.0625 C-1.57125 7.041875 -2.7675 7.02125 -4 7 C-6.31036915 7.42854995 -6.31036915 7.42854995 -8 8 C-5.33333333 5.33333333 -2.66666667 2.66666667 0 0 Z " fill="#21CAD8" transform="translate(24,22)"/>
<path d="M0 0 C0.66 0 1.32 0 2 0 C0.37815126 6.71908764 0.37815126 6.71908764 -2.1875 8.625 C-5.17152633 10.08385732 -7.71554694 10.61808685 -11 11 C-8.51017809 8.43904032 -6.04769994 6.03794313 -3.25 3.8125 C-0.92512612 2.19690923 -0.92512612 2.19690923 0 0 Z " fill="#4E87AE" transform="translate(33,12)"/>
<path d="M0 0 C0 1.32 0 2.64 0 4 C-2.87354245 6.17457267 -4.36436591 7 -8 7 C-7.62005832 4.24542282 -7.1926367 3.17979426 -5.125 1.25 C-3 0 -3 0 0 0 Z " fill="#41DCE5" transform="translate(34,19)"/>
<path d="M0 0 C0.625 1.8125 0.625 1.8125 1 4 C0.01 5.485 0.01 5.485 -1 7 C0.32 7.33 1.64 7.66 3 8 C0 10 0 10 -3 10 C-2.49287967 6.28111761 -1.88391785 3.26545761 0 0 Z " fill="#D6C0D3" transform="translate(7,24)"/>
<path d="M0 0 C0.66 0 1.32 0 2 0 C2 1.32 2 2.64 2 4 C-3.41538462 7.07692308 -3.41538462 7.07692308 -6.375 6.6875 C-6.91125 6.460625 -7.4475 6.23375 -8 6 C-7.4225 5.7525 -6.845 5.505 -6.25 5.25 C-3.86550111 4.06009525 -3.86550111 4.06009525 -1.875 1.875 C-0.946875 0.946875 -0.946875 0.946875 0 0 Z " fill="#20E7E4" transform="translate(32,23)"/>
<path d="M0 0 C0.99 0 1.98 0 3 0 C2.875 1.75 2.875 1.75 2 4 C-1.0625 6.25 -1.0625 6.25 -4 8 C-4.33 6.68 -4.66 5.36 -5 4 C-3.68 4 -2.36 4 -1 4 C-0.67 2.68 -0.34 1.36 0 0 Z " fill="#CDBAB4" transform="translate(29,12)"/>
<path d="M0 0 C-0.33 1.32 -0.66 2.64 -1 4 C-1.66 4 -2.32 4 -3 4 C-3 3.34 -3 2.68 -3 2 C-3.66 2 -4.32 2 -5 2 C-5.33 2.66 -5.66 3.32 -6 4 C-6.33 2.68 -6.66 1.36 -7 0 C-3.98968256 -0.93423645 -3.13349732 -1.04449911 0 0 Z " fill="#A8B3D4" transform="translate(38,10)"/>
<path d="M0 0 C0.99 0 1.98 0 3 0 C3 0.66 3 1.32 3 2 C4.65 1.67 6.3 1.34 8 1 C3.375 5 3.375 5 0 5 C0 3.35 0 1.7 0 0 Z " fill="#28B4E7" transform="translate(3,38)"/>
<path d="M0 0 C-0.66 0 -1.32 0 -2 0 C-2 0.99 -2 1.98 -2 3 C-5.3 3.33 -8.6 3.66 -12 4 C-4.61538462 -1.53846154 -4.61538462 -1.53846154 0 0 Z " fill="#1ED1F4" transform="translate(21,35)"/>
<path d="M0 0 C1.32 0.66 2.64 1.32 4 2 C3.071875 2.1546875 3.071875 2.1546875 2.125 2.3125 C-0.36526484 2.87525373 -0.36526484 2.87525373 -2 6 C-2.66 6 -3.32 6 -4 6 C-2.84826645 3.53199953 -1.95216435 1.95216435 0 0 Z " fill="#EAC9BD" transform="translate(16,12)"/>
<path d="" fill="#1C67C8" transform="translate(0,0)"/>
</svg>
